<svg xmlns="http://www.w3.org/2000/svg" viewBox="0 0 45.98 45.98"><defs><style>.cls-1{fill:#0a446b;}.cls-2{fill:#fff;}</style></defs><title>click</title><g id="Layer_2" data-name="Layer 2"><g id="Layer_1-2" data-name="Layer 1"><circle class="cls-1" cx="22.99" cy="22.99" r="22.99"/><path class="cls-2" d="M33.25,25.38,20.66,17.94a1.18,1.18,0,0,0-.59-.18.87.87,0,0,0-.54.19A.93.93,0,0,0,19.19,19l3.45,14.12a.93.93,0,0,0,.8.79h.14a1,1,0,0,0,.86-.53c.44-.72.89-1.43,1.34-2.15l.35-.56L29,34.52a1.08,1.08,0,0,0,.83.51,1.24,1.24,0,0,0,.7-.27l2-1.44a.93.93,0,0,0,.23-1.45c-.21-.3-.43-.59-.65-.88l-2.28-3L33,27.17a1,1,0,0,0,.81-.8A.93.93,0,0,0,33.25,25.38Z"/><path class="cls-2" d="M15.12,21.67H11.39a1.09,1.09,0,0,1,0-2.18h3.73a1.09,1.09,0,1,1,0,2.18Z"/><path class="cls-2" d="M23.21,15.62a1.11,1.11,0,0,1-.46-.11,1.08,1.08,0,0,1-.52-1.44l1.57-3.39a1.09,1.09,0,0,1,2,.93L24.2,15A1.1,1.1,0,0,1,23.21,15.62Z"/><path class="cls-2" d="M17.85,15.88a1.09,1.09,0,0,1-.87-.43l-2.26-3a1.09,1.09,0,0,1,1.74-1.32l2.25,3a1.08,1.08,0,0,1-.86,1.75Z"/></g></g></svg>