<svg xmlns="http://www.w3.org/2000/svg" viewBox="0 0 35.67 34.34"><defs><style>.cls-1{fill:#0a446b;}</style></defs><title>barras_n_1</title><g id="Layer_2" data-name="Layer 2"><g id="Layer_1-2" data-name="Layer 1"><path class="cls-1" d="M6.34,30H9.42A1.58,1.58,0,0,0,11,28.39V16.46a1.58,1.58,0,0,0-1.58-1.58H6.34a1.59,1.59,0,0,0-1.59,1.58V28.39A1.59,1.59,0,0,0,6.34,30ZM6.06,16.46a.27.27,0,0,1,.28-.27H9.42a.28.28,0,0,1,.28.27V28.39a.28.28,0,0,1-.28.27H6.34a.27.27,0,0,1-.28-.27Z"/><path class="cls-1" d="M16.74,30h3.09a1.58,1.58,0,0,0,1.58-1.58V9.1a1.58,1.58,0,0,0-1.58-1.58H16.74A1.58,1.58,0,0,0,15.16,9.1V28.39A1.58,1.58,0,0,0,16.74,30ZM16.47,9.1a.27.27,0,0,1,.27-.27h3.09a.27.27,0,0,1,.27.27V28.39a.27.27,0,0,1-.27.27H16.74a.27.27,0,0,1-.27-.27Z"/><path class="cls-1" d="M27.14,30h3.09a1.58,1.58,0,0,0,1.58-1.58V1.58A1.58,1.58,0,0,0,30.23,0H27.14a1.58,1.58,0,0,0-1.58,1.58V28.39A1.58,1.58,0,0,0,27.14,30ZM26.87,1.58a.27.27,0,0,1,.27-.27h3.09a.27.27,0,0,1,.27.27V28.39a.27.27,0,0,1-.27.27H27.14a.27.27,0,0,1-.27-.27Z"/><path class="cls-1" d="M35,33H1.31V.65A.66.66,0,0,0,.65,0,.65.65,0,0,0,0,.65v33a.65.65,0,0,0,.65.66H35A.66.66,0,1,0,35,33Z"/></g></g></svg>