<svg xmlns="http://www.w3.org/2000/svg" viewBox="0 0 35.67 34.34"><defs><style>.cls-1{fill:#0a446b;}</style></defs><title>lines_n_1</title><g id="Layer_2" data-name="Layer 2"><g id="Layer_1-2" data-name="Layer 1"><path class="cls-1" d="M35,33H1.31V.65A.66.66,0,0,0,.65,0,.65.65,0,0,0,0,.65v33a.65.65,0,0,0,.65.66H35A.66.66,0,1,0,35,33Z"/><path class="cls-1" d="M6.23,24.28,4.6,29.4a.67.67,0,0,0,.44.84l.2,0a.66.66,0,0,0,.64-.47L7.2,25.67l2.19,3.15a.68.68,0,0,0,.52.29h0a.67.67,0,0,0,.52-.25l4.3-5.29L19,26.43a.66.66,0,0,0,.51.1.72.72,0,0,0,.44-.3l4.28-6.85,4.1,3.46a.67.67,0,1,0,.87-1l-4.7-4a.67.67,0,0,0-1,.16l-4.32,6.91L15,22.11a.67.67,0,0,0-.9.13L10,27.32,7.71,24.05l2.62-8.23,3.83,3.83a.66.66,0,0,0,.61.18.67.67,0,0,0,.49-.42L19.48,8.55l4,6.13a.69.69,0,0,0,.6.31.67.67,0,0,0,.56-.38l4.7-9.46a.68.68,0,0,0-1.21-.6L23.94,13,19.89,6.71a.67.67,0,0,0-1.19.13L14.38,18,10.5,14.09a.66.66,0,0,0-.64-.18.64.64,0,0,0-.48.45l-2.64,8.3-1-1.37a.67.67,0,0,0-1.1.77Z"/><path class="cls-1" d="M29.94,3.28a.79.79,0,1,0-.79-.79A.79.79,0,0,0,29.94,3.28Z"/><path class="cls-1" d="M29.94,23.72a.79.79,0,1,0,.79-.79A.79.79,0,0,0,29.94,23.72Z"/></g></g></svg>