<svg xmlns="http://www.w3.org/2000/svg" viewBox="0 0 28.51 38.86"><defs><style>.cls-1{fill:#0a446b;}</style></defs><title>map_n_1</title><g id="Layer_2" data-name="Layer 2"><g id="Layer_1-2" data-name="Layer 1"><path class="cls-1" d="M21.07,38.86a.52.52,0,0,1-.37-.16l-.4-.44-.09-.11L20.15,38v0l-.12,0a.48.48,0,0,1-.37,0l-.07,0h0a.55.55,0,0,1-.33-.12l-.07-.06a.58.58,0,0,1-.21-.23.5.5,0,0,1,0-.46l1.19-2-.07-.07-.09,0-.12-.1-.1,0a.53.53,0,0,1-.54-.16l-.06-.08a.42.42,0,0,1-.1-.17h0L19,34.49l-.07,0a.47.47,0,0,1-.17,0,.45.45,0,0,1-.29.12.49.49,0,0,1-.16,0,.48.48,0,0,1-.29,0h0a.54.54,0,0,1-.46-.06.57.57,0,0,1-.11-.11.56.56,0,0,1-.29-.21h0l0,0a.53.53,0,0,1-.16.2.49.49,0,0,1-.38.11.57.57,0,0,1-.3.22.55.55,0,0,1-.31,0l-.11,0a.52.52,0,0,1-.37,0l-.18-.12h-.06l-.08,0a.58.58,0,0,1-.37,0h-.13l-.1,0a.49.49,0,0,1-.55-.09.66.66,0,0,1-.12-.17.49.49,0,0,1-.34-.17.44.44,0,0,1-.11-.2l-.07-.11a.66.66,0,0,1,.08-.64s0,0,0-.06a.27.27,0,0,1-.19-.05h0a.52.52,0,0,1-.37-.16h0a.51.51,0,0,1-.38-.63l.06-.2v0a.42.42,0,0,1-.11-.18.64.64,0,0,1,0-.07h-.11l-.2-.05a.54.54,0,0,1-.32-.25l-.06,0-.09,0-.08-.07-.06,0-.1,0-.13-.05-.17-.08a.52.52,0,0,1-.27-.33.51.51,0,0,1-.13-.37.44.44,0,0,1-.11-.24.41.41,0,0,1,0-.22v0h0a.71.71,0,0,1-.27-.18l-.06,0A.6.6,0,0,1,10,30h0l-.14-.15a.5.5,0,0,1-.23-.09h0a.45.45,0,0,1-.27-.17l-.07-.07a.53.53,0,0,1-.49,0l-.09,0a.65.65,0,0,1-.38-.15l-.14-.06-.12-.06-.14,0-.27-.07L7.47,29l-.32-.29a.38.38,0,0,1-.09-.13h0a.53.53,0,0,1-.1-.12l-.12,0a.44.44,0,0,1-.08.11.5.5,0,0,1-.37.14h0l-.12.06a.51.51,0,0,1-.48,0,.47.47,0,0,1-.31,0,.46.46,0,0,1-.26,0l-.12-.05L5,28.6H5a.54.54,0,0,1-.26-.09H4.58a1.74,1.74,0,0,1-.22-.05h0a.46.46,0,0,1-.26,0l-.1,0a.48.48,0,0,1-.31-.28l-.12-.21a.44.44,0,0,1-.07-.19h0l-.16-.1-.09-.1,0,0h0a1.13,1.13,0,0,1-.26,0l-.18-.05a.56.56,0,0,1-.16-.07L2,26.92a.49.49,0,0,1-.3-.18l-.14-.16-.11,0a.47.47,0,0,1-.32-.19l0,0a.56.56,0,0,1-.18-.16L.72,26l-.15-.15a.47.47,0,0,1-.26-.24l-.14-.11A.53.53,0,0,1,0,25.17a.64.64,0,0,1,.12-.43l.29-.34a.55.55,0,0,1,.39-.25v-.24a.53.53,0,0,1,.1-.28.41.41,0,0,1,0-.22A.83.83,0,0,1,1,23.19l.09-.2a.45.45,0,0,1,.22-.25l.13-.09a.48.48,0,0,1,.37-.2H2a.37.37,0,0,1,.18-.15l.09,0a.58.58,0,0,1,.41,0h0a.61.61,0,0,1,.24-.17h0L3,22a.43.43,0,0,1,0-.31l.1-.15a.51.51,0,0,1,.22-.19l.05-.07A.49.49,0,0,1,3.57,21l.23-.21,0,0a.51.51,0,0,1,.07-.17l.15-.19a.41.41,0,0,1-.1-.13.31.31,0,0,1-.11-.09L3.7,20a.43.43,0,0,1-.09-.22.43.43,0,0,1-.14-.23s0,0,0-.06a.48.48,0,0,1,0-.39l.06-.18a.49.49,0,0,1,.3-.31.46.46,0,0,1,.06-.23l0-.11a.59.59,0,0,1,0-.13V18l-.09-.28a.55.55,0,0,1,0-.22v-.06l0-.24a.46.46,0,0,1,0-.26l0-.16s0,0,0,0a.55.55,0,0,1-.27-.59L3.46,16a.48.48,0,0,1,.43-.34h0v0l0-.13h0l0-.06-.1-.16a.46.46,0,0,1-.07-.16l-.06-.13a.45.45,0,0,1-.05-.3l0-.17a.53.53,0,0,1,.17-.31.6.6,0,0,1-.29-.42l-.06-.05a.62.62,0,0,1-.2-.15.52.52,0,0,1-.13-.39v-.06l-.2-.18a.28.28,0,0,1-.09-.1l-.1-.14a.53.53,0,0,1-.08-.32s0-.16,0-.2L2.69,12l.17-.33A.47.47,0,0,1,3,11.49a.43.43,0,0,1,0-.19.64.64,0,0,1,.43-.37.81.81,0,0,1,.37.05l.09-.14A.68.68,0,0,1,4,10.72l.12-.09,0-.1L4,10.44a.51.51,0,0,1-.15-.24L3.83,10a.46.46,0,0,1-.13-.2l-.05-.13a.48.48,0,0,1,.05-.45L3.85,9a.49.49,0,0,1,.39-.29.51.51,0,0,1,.46.19L4.81,9l.08.07A.22.22,0,0,1,4.94,9l.12-.12a.46.46,0,0,1,.26-.15l.22-.05a.49.49,0,0,1,.14-.11l.17-.11A.21.21,0,0,1,6,8.41l0-.05a.49.49,0,0,1,.22-.18h0a.69.69,0,0,1,.13-.11h0a.39.39,0,0,1,.1-.16l0-.07a.49.49,0,0,1,.17-.33h0a.46.46,0,0,1,.13-.19L7,7.2l.13-.07.13,0A.42.42,0,0,1,7.47,7l.19,0s0,0,0,0a.53.53,0,0,1,.11-.49s0-.05,0-.07l0-.1a.53.53,0,0,1-.2-.36.56.56,0,0,1,.16-.46l.07-.12a.61.61,0,0,1,0-.12A.45.45,0,0,1,8,4.92l0,0a.55.55,0,0,1,0-.25.52.52,0,0,1,.2-.24l.06-.07.14-.11a.44.44,0,0,1,.16-.1h0A.51.51,0,0,1,9,3.82l.21-.13.07-.09a.69.69,0,0,1,.13-.11l.15-.14a.49.49,0,0,1,.14-.11l.12-.05a.49.49,0,0,1,.34,0l.22.06.48.19A.45.45,0,0,1,11,3L11,2.92a.61.61,0,0,1,.2-.24.9.9,0,0,1,.27-.11l.32,0a.46.46,0,0,1,.26,0l.3.14h.19l.38,0h.24l.11-.07a.51.51,0,0,1,.14-.15l.15-.1.1-.08.22-.16A.5.5,0,0,1,14.16,2L14.22,2l.21-.17a.5.5,0,0,1,.19-.1l.28-.08.11,0a.31.31,0,0,1,.27-.08l.07,0h0a.64.64,0,0,1,.08-.14l.05-.05a.49.49,0,0,1,.08-.56.62.62,0,0,1,.37-.2h.16l.1-.09.24-.15a.39.39,0,0,1,.11-.06.49.49,0,0,1,.18-.14A.84.84,0,0,1,17,0h.24l.11,0,.17,0a.75.75,0,0,1,.2.1.39.39,0,0,1,.15.06H18a.47.47,0,0,1,.25.11l.11.08a.7.7,0,0,1,.13.17l.22.45a.3.3,0,0,1,0,.1l0,.14a.48.48,0,0,1,0,.29.74.74,0,0,1-.15.26L18.41,2l-.16.1h0a.58.58,0,0,1-.36.36l-1,.28-.52,1a.5.5,0,0,1-.51.25h-.08V4a.54.54,0,0,1-.11.18l0,0-.37.85L15,5.42s-.07.13-.09.14l-.09.12v0a.54.54,0,0,1,0,.28l-.11.28a.5.5,0,0,1,.07.36.78.78,0,0,1-.18.32l0,.09-.06.13-.11.17s0,0,0,0a.38.38,0,0,1,.11.11l.07.09a.35.35,0,0,1,.05.08.47.47,0,0,1,.3.18.5.5,0,0,1,.22.28l.22.88,0,0,.51.58A.48.48,0,0,1,16,9.9V10a1.3,1.3,0,0,0,0,.13v.19a.24.24,0,0,1,0,.12l0,.14v.06a.47.47,0,0,1-.15.39.57.57,0,0,1,0,.18l-.07.19v.11s0,0,0,.06a.73.73,0,0,1,.25,0l.15.07a.5.5,0,0,1,.3.5v.09l.09.17h0l.16-.06.16,0,.2,0h.12a1,1,0,0,1,.22.06h.16a.39.39,0,0,1,.24,0H18l.16,0h0a.48.48,0,0,1,.37,0l0,0a.5.5,0,0,1,.21-.09l.35-.08h.14a.71.71,0,0,1,.28.06h0a.52.52,0,0,1,.42.17h.05a.5.5,0,0,1,.2.08l.08,0,.22,0a.51.51,0,0,1,.46.19l1.35,1.75a.28.28,0,0,1,.13,0A.49.49,0,0,1,23,14.3l.1,0h.16a.47.47,0,0,1,.17,0h.05l.11,0a.33.33,0,0,1,.19.06l.13,0h0a.54.54,0,0,1,.25,0h0a.43.43,0,0,1,.16,0l.12,0h.22l.14,0,.25-.06a.58.58,0,0,1,.26,0l0,0,.25-.14a.5.5,0,0,1,.43,0l.06,0,.34,0a.53.53,0,0,1,.22.08l.2.14a.5.5,0,0,1,.2.52.57.57,0,0,1,.11.28.62.62,0,0,1-.13.42l-.29.33v.18l0,.07a.5.5,0,0,1,0,.36l-.1.19a.48.48,0,0,1-.19.21l-.17.1a.86.86,0,0,1,0,.16l0,.08a.47.47,0,0,1,0,.35l-.08.23v.08a.45.45,0,0,1,0,.11l-.06.38a.36.36,0,0,1,.08.12l.06.14a.48.48,0,0,1,.05.18V19a.53.53,0,0,1,0,.13v0l.11.17a.93.93,0,0,1,.05.1l.11.44a.5.5,0,0,1,.4.33l0,.07a.55.55,0,0,1,.09.19l.06.18s0,0,0,0a.45.45,0,0,1,.16.22l.06.14a.53.53,0,0,1,0,.35l0,.15a.64.64,0,0,1-.08.14.5.5,0,0,1-.37.35l-.24.23a.45.45,0,0,1,.1.13l0,.07.1.07.23.26a.89.89,0,0,1,.14.13l.06.08a.61.61,0,0,1,.19.17l.07.11a.45.45,0,0,1,.08.22.81.81,0,0,1,0,.22.52.52,0,0,1,.19.36l0,.16v0l0,.06.08.19a.42.42,0,0,1,0,.16v0a.5.5,0,0,1,0,.13V25a.59.59,0,0,1,.08.16v.05a1,1,0,0,1,.07.17l.09.28a.5.5,0,0,1,.06.38h0a.52.52,0,0,1,0,.44.51.51,0,0,1-.35.25l-.49.09a.53.53,0,0,1-.39-.09.52.52,0,0,1-.2-.34l0-.27a.75.75,0,0,1,0-.15v-.05l-.07-.29-.17-.41A.5.5,0,0,1,26.6,25l0-.1,0,0a.86.86,0,0,1-.13.14l-.14.15a.69.69,0,0,1-.13.11l-.19.11-.13.05a.77.77,0,0,1-.37,0l-.1,0a.45.45,0,0,1-.32.14l-2.75-.09-.16,0-.12,0-.07,0a.32.32,0,0,1-.14,0v.45h0l.12,0h.11a.37.37,0,0,1,.18,0,.6.6,0,0,1,.26,0l.22.07.21.11a.49.49,0,0,1,.26.4.35.35,0,0,1,.06.14.52.52,0,0,1,.06.42.5.5,0,0,1,.07.27.6.6,0,0,1-.15.4.62.62,0,0,1-.3.18.44.44,0,0,1-.21.07h-.14a.46.46,0,0,1-.21,0,.5.5,0,0,1-.32-.09l0,0a.58.58,0,0,1-.26.06l-.06,0-.14,0a.28.28,0,0,1-.13,0h-.08l0,1,.09.13a.39.39,0,0,1,.17.09l.05,0a.46.46,0,0,1,.21.13l.17.11a.5.5,0,0,1,.26.29l.11.4a.43.43,0,0,1,0,.25.54.54,0,0,1,.07.13l0,.05.06.06.09.12a.62.62,0,0,1,.1.22l.05.16a.54.54,0,0,1,0,.43l0,0,0,.08a.46.46,0,0,1,0,.26l0,.17a.37.37,0,0,1-.05.17v.05l-1.1,6.07a.48.48,0,0,1-.35.39Zm-.82-1.93h.11a.45.45,0,0,1,.16,0l.11,0a.54.54,0,0,1,.16.1l.28-1.54Zm.57-2.55a.43.43,0,0,1,.16,0,.73.73,0,0,1,.25.3l.44-2.43v-.09a.59.59,0,0,1,.05-.22l0,0a.43.43,0,0,1,0-.11v0l0-.1a.48.48,0,0,1,0-.29.14.14,0,0,1,0-.07l0-.05a.47.47,0,0,1-.16-.21l0-.11-.13-.16a.5.5,0,0,1-.06-.5v0a.27.27,0,0,1-.12-.09l0,0a.34.34,0,0,1-.16-.1l0,0a.39.39,0,0,1-.23-.12l-.23-.24a.5.5,0,0,1-.08-.12l-.12-.25a.59.59,0,0,1-.05-.23l0-1.44a.49.49,0,0,1,.25-.43l.12-.07A.58.58,0,0,1,21,27.1a.38.38,0,0,1,.1,0h.16a.47.47,0,0,1,.2-.12l.09,0h0a.48.48,0,0,1-.39,0,.58.58,0,0,1-.32-.47V25a.48.48,0,0,1,.15-.36.45.45,0,0,1,.33-.14.42.42,0,0,1,.27-.07h.11l.09,0a.48.48,0,0,1,.27,0l.22,0,.1,0,.06,0,1.95.07,0-.06,0-.06.05-.11.05-.09a.51.51,0,0,1,.61-.23l.2.08a.44.44,0,0,1,.19.12l.08.09.07.09h0l.07-.07.17-.26.1-.12.25-.2a.51.51,0,0,1,.31-.11h0l-.06,0-.11-.13a.49.49,0,0,1-.3-.14.57.57,0,0,1-.13-.21h0l0,0a.42.42,0,0,1-.29,0,.51.51,0,0,1-.3-.42.75.75,0,0,1,.16-.45l.91-.86a.41.41,0,0,1-.08-.24h0a1,1,0,0,1,0-.1.47.47,0,0,1-.21-.11l-.1-.08a.53.53,0,0,1-.16-.28l-.06-.22a.33.33,0,0,1,0-.13l0-.22-.17-.27a.48.48,0,0,1-.07-.23v-.18a.53.53,0,0,1,0-.13v0a.36.36,0,0,1-.11-.16l-.08-.18a.47.47,0,0,1,0-.33l.08-.33,0-.1a.86.86,0,0,1,0-.16l.06-.29,0-.07a.45.45,0,0,1,0-.28.54.54,0,0,1,0-.28,1.42,1.42,0,0,1,.07-.22l.09-.15a.49.49,0,0,1,.12-.13l.24-.18V16.1l.08-.57a.45.45,0,0,1,.12-.21l.13-.15,0-.08h-.12a.57.57,0,0,1-.15.12l-.1,0a.47.47,0,0,1-.31.05l-.22-.05-.08,0a.44.44,0,0,1-.19.07h-.12a.21.21,0,0,1-.11,0h-.11l-.11.06a.51.51,0,0,1-.34,0h-.31l-.25-.05-.15-.05h-.06a.42.42,0,0,1-.22,0l-.05,0h0a.53.53,0,0,1-.33.19l-.19,0a.42.42,0,0,1-.27,0,.45.45,0,0,1-.32-.07l-.15-.12L20.43,13.6h0a.57.57,0,0,1-.22,0,.86.86,0,0,1-.39-.13l-.11,0a.5.5,0,0,1-.23-.09l0,0a.41.41,0,0,1-.18,0l-.12,0a.56.56,0,0,1-.17.09l-.07,0a.52.52,0,0,1-.2.08l-.11,0a.54.54,0,0,1-.25,0l-.09,0h-.09l-.17,0h0a.48.48,0,0,1-.29,0h0a.41.41,0,0,1-.19,0h-.34l-.12,0h-.06a.44.44,0,0,1-.15,0h-.18a1.11,1.11,0,0,1-.41,0L16,13.36a.54.54,0,0,1-.22-.23l-.26-.51a.32.32,0,0,1-.14,0l-.16-.06a.49.49,0,0,1-.29-.29l0-.07a.49.49,0,0,1-.12-.45.2.2,0,0,1,0-.07l0-.28a.34.34,0,0,1,0-.2l0-.1a.51.51,0,0,1,.13-.55l.06-.06v-.17a.73.73,0,0,1,0-.16v0l-.32-.36a.59.59,0,0,1-.26-.31l-.18-.72a.49.49,0,0,1-.36-.17l0,0h-.06l-.13,0a.54.54,0,0,1-.28,0h0A.49.49,0,0,1,13,7.74l.18-.43a.76.76,0,0,1,.11-.14l0-.06.14-.21a.43.43,0,0,1,.11-.12v0l.13-.25h0a.57.57,0,0,1,0-.13l0-.18a.39.39,0,0,1,0-.14l.11-.29a.54.54,0,0,1,0-.18l0-.13a.44.44,0,0,1,.07-.19L14.1,5l0-.08.33-.57.24-.61a.57.57,0,0,1,.08-.13l.06-.13A.42.42,0,0,1,15,3.25l.1-.1A.48.48,0,0,1,15.4,3l.08,0,.11,0L16,2.28l0,0-.3.16a.46.46,0,0,1-.23.06l-.16.06h0l-.1,0-.2.08a.36.36,0,0,1-.12.15.81.81,0,0,1-.32.16l-.07,0-.1.08-.1.05-.09.08-.06,0a.58.58,0,0,1-.12.14l-.3.2a.46.46,0,0,1-.24.08l-.24,0a.21.21,0,0,1-.11,0H13l-.43,0h-.32a.65.65,0,0,1-.2,0l-.16-.08,0,.17a.47.47,0,0,1-.14.3l-.15.15a.54.54,0,0,1-.27.14l-.23,0h-.36a.58.58,0,0,1-.14,0l-.45-.18,0,0a.43.43,0,0,1-.1.09l-.07.08a.49.49,0,0,1-.13.12l-.33.2a.75.75,0,0,1-.15.16l-.08.06A.31.31,0,0,1,9.1,5h0v.06A.49.49,0,0,1,9,5.39a.39.39,0,0,1,0,.15v0a.47.47,0,0,1,0,.33L9,6v.08a.51.51,0,0,1-.2.47v.08h0l0,.06a.53.53,0,0,1,.08.22V7a.5.5,0,0,1,0,.17.66.66,0,0,1-.06.2l-.15.28a.53.53,0,0,1-.28.25L8.25,8A.75.75,0,0,1,8,8l-.28,0A.34.34,0,0,1,7.64,8L7.56,8a.38.38,0,0,1-.09.12.5.5,0,0,1-.12.28l-.1.14A.53.53,0,0,1,7,8.82L7,8.86a.48.48,0,0,1-.23.19l0,0a.47.47,0,0,1-.2.17l-.27.17a.43.43,0,0,1-.14.13l0,.09a.5.5,0,0,1,0,.36v0l0,.14a.62.62,0,0,1,0,.19v0a.2.2,0,0,1,0,.11v.27a.47.47,0,0,1,0,.17.67.67,0,0,1-.37.37l-.19.05a.33.33,0,0,1-.14,0H5.37a.41.41,0,0,1-.19,0l-.13-.07a.37.37,0,0,1-.15.13l-.2.12-.27.38a.48.48,0,0,1-.26.3l-.1.05a.49.49,0,0,1-.31,0h0l0,0,0,0a.65.65,0,0,1,.2.15l.06.09a.56.56,0,0,1,.09.17.66.66,0,0,1,.09.28l.09.08,0,0h0a.68.68,0,0,1,.41.4l.07.09a.47.47,0,0,1,.09.22.82.82,0,0,1,0,.38v.11a.45.45,0,0,1-.09.26h0a1,1,0,0,1,0,.16l0,.08.11.23a.85.85,0,0,1,0,.22l0,.07a.57.57,0,0,1,.1.5L5,16a.6.6,0,0,1-.16.22l-.13.13h0a.62.62,0,0,1,0,.19l0,.11a.58.58,0,0,1,0,.23.52.52,0,0,1,0,.3h0l0,.09a.5.5,0,0,1,0,.21v.05l0,.07a.36.36,0,0,1,.07.1l.06.1a.51.51,0,0,1,0,.53l0,.09v0a.43.43,0,0,1,0,.16,1,1,0,0,1,0,.16.66.66,0,0,1-.09.27.39.39,0,0,1,.16.1l.08.08a.57.57,0,0,1,.12.18.5.5,0,0,1,.37.22.5.5,0,0,1,0,.61l0,0a.53.53,0,0,1-.11.21.64.64,0,0,1-.13.35L5,21a.66.66,0,0,1-.17.12h0l0,.09a.5.5,0,0,1-.27.36.1.1,0,0,0,0,0l0,.08a.66.66,0,0,1-.26.29L4.14,22a.61.61,0,0,1,0,.12v0a.52.52,0,0,1-.19.46h0a.52.52,0,0,1-.2.24.52.52,0,0,1-.31.32.57.57,0,0,1-.18,0L3,23.27H3l-.12.09a.47.47,0,0,1-.45.09.46.46,0,0,1-.21.18.5.5,0,0,1-.21.05.26.26,0,0,1,0,.15L2,24a.38.38,0,0,1,0,.15.13.13,0,0,1,0,.06.45.45,0,0,1,.08.22v.24A.46.46,0,0,1,2,25a.6.6,0,0,1-.49.28H1.32l.19.15a.46.46,0,0,1,.12.12.69.69,0,0,1,.13.11h.05a.43.43,0,0,1,.27.13l.26.23a.49.49,0,0,1,.27.15l.26.21.2.14.34-.09a.5.5,0,0,1,.21,0l.1,0a.47.47,0,0,1,.34.27.65.65,0,0,1,.06.21.46.46,0,0,1,.22.17l.06.09a.43.43,0,0,1,.1.29h0l.07,0a.41.41,0,0,1,.16,0H4.9a.51.51,0,0,1,.35.15h0a.83.83,0,0,1,.21.06,1,1,0,0,1,.24,0l.2,0H6l.09-.11a.47.47,0,0,1,.33-.14.5.5,0,0,1,.46-.05l.25.06a.48.48,0,0,1,.29.15l.16.07a.51.51,0,0,1,.28.31h0l.09.11.11.1h0a.5.5,0,0,1,.58.17l0,.06.12.05.06,0a.5.5,0,0,1,.47-.07l.24.09.12.06.24.17a.48.48,0,0,1,.47.12l.16.17.06.1,0,.05a.31.31,0,0,1,.1,0l.14.08a.57.57,0,0,1,.15.16l.14.08a.51.51,0,0,1,.23.29.38.38,0,0,1,.08.17l.06.25a.14.14,0,0,1,0,.06v0l0,0a.71.71,0,0,1,.18.28h.12a.53.53,0,0,1,.31.24l.09.06h0a.48.48,0,0,1,.18.17.46.46,0,0,1,.2.05.52.52,0,0,1,.16.06l.14.09a.48.48,0,0,1,.19.21.49.49,0,0,1,.13.23h0a.14.14,0,0,1,0,.06.09.09,0,0,1,0,.05.64.64,0,0,1,.15.21l0,.11s0,0,0,.06a.36.36,0,0,1,0,.09.47.47,0,0,1,.45.19l.05.05a.53.53,0,0,1,.22.29.44.44,0,0,1,.12.32l0,.16.05.1a.54.54,0,0,1,0,.25l0,0,.09.07a1,1,0,0,1,.18,0,.46.46,0,0,1,.31,0l.15,0,.05,0h.27a.41.41,0,0,1,.18,0l.15,0,0-.05a.55.55,0,0,1,.4-.19.48.48,0,0,1,.32-.3h0l.1-.06a.51.51,0,0,1,.6.07s0,0,0,0l.27.08a.44.44,0,0,1,.15.08l.06,0,.12.09h.08a.41.41,0,0,1,.11-.07h0a.46.46,0,0,1,.15-.16.48.48,0,0,1,.55,0h0a.5.5,0,0,1,.17,0,1,1,0,0,1,.32.16.71.71,0,0,1,.14.1l.05,0a.55.55,0,0,1,.24.18.52.52,0,0,1,.15.07.44.44,0,0,1,.16.06.29.29,0,0,1,.13,0l.12,0a.51.51,0,0,1,.3.22.65.65,0,0,1,.11.12ZM16.3,1.86h0l.08,0,1-.26,0,0,.18-.19.1-.09,0-.06-.13-.05a.62.62,0,0,1-.24-.08h0l-.11.06,0,0a.42.42,0,0,1,0,.15.51.51,0,0,1-.29.25.58.58,0,0,1-.25.12h-.15v0l-.07.11Z"/></g></g></svg>