<svg xmlns="http://www.w3.org/2000/svg" viewBox="0 0 34.38 34.38"><defs><style>.cls-1{fill:#0a446b;}</style></defs><title>pie_n_1</title><g id="Layer_2" data-name="Layer 2"><g id="Layer_1-2" data-name="Layer 1"><path class="cls-1" d="M22.52.85h-.06a17.13,17.13,0,0,0-16.09,3l-.08,0L6.23,4A17.18,17.18,0,1,0,32.89,24.17l0,0s0,0,0-.06a17,17,0,0,0,1.45-6.88A17.21,17.21,0,0,0,22.52.85ZM33.07,17.19A15.75,15.75,0,0,1,32,23L18,16.83,22.7,2.3A15.89,15.89,0,0,1,33.07,17.19ZM21.46,1.9l-4.53,14L7.64,4.51A15.82,15.82,0,0,1,21.46,1.9ZM17.19,33.07A15.87,15.87,0,0,1,6.63,5.34L16.68,17.6l0,0,.06.06,0,0,.07.05.05,0h0l14.52,6.4A15.92,15.92,0,0,1,17.19,33.07Z"/></g></g></svg>