<svg xmlns="http://www.w3.org/2000/svg" viewBox="0 0 34.57 34.38"><defs><style>.cls-1{fill:#0a446b;}</style></defs><title>treemap_n_1</title><g id="Layer_2" data-name="Layer 2"><g id="Layer_1-2" data-name="Layer 1"><path class="cls-1" d="M15.24,34.38H.67A.67.67,0,0,1,0,33.7V.67A.67.67,0,0,1,.67,0H15.24a.67.67,0,0,1,.67.67v33A.67.67,0,0,1,15.24,34.38ZM1.34,33H14.57V1.34H1.34Z"/><path class="cls-1" d="M33.9,21.56H18.3a.67.67,0,0,1-.67-.67V.67A.67.67,0,0,1,18.3,0H33.9a.67.67,0,0,1,.67.67V20.89A.67.67,0,0,1,33.9,21.56ZM19,20.21H33.23V1.34H19Z"/><path class="cls-1" d="M33.9,34.38H18.3a.67.67,0,0,1-.67-.68V24a.67.67,0,0,1,.67-.67H33.9a.67.67,0,0,1,.67.67V33.7A.67.67,0,0,1,33.9,34.38ZM19,33H33.23V24.71H19Z"/></g></g></svg>